<svg width="65" height="60" viewBox="0 0 65 60" fill="none" xmlns="http://www.w3.org/2000/svg">
<g filter="url(#filter0_i_43_24)">
<rect width="64.3151" height="60" rx="20" fill="white"/>
<path d="M32.6773 25.9375C30.2723 25.9375 28.3226 27.7564 28.3226 30C28.3226 32.2436 30.2723 34.0625 32.6773 34.0625C35.0822 34.0625 37.0319 32.2436 37.0319 30C37.0319 27.7564 35.0822 25.9375 32.6773 25.9375Z" fill="black"/>
<path fill-rule="evenodd" clip-rule="evenodd" d="M25.669 18.852C30.2892 18.3703 35.0655 18.3703 39.6856 18.852C42.2293 19.1172 44.2809 20.987 44.5795 23.3683C45.1319 27.7746 45.1319 32.2258 44.5795 36.6321C44.2809 39.0134 42.2293 40.8832 39.6856 41.1483C35.0655 41.6301 30.2892 41.6301 25.669 41.1483C23.1253 40.8832 21.0737 39.0134 20.7751 36.6321C20.2227 32.2258 20.2227 27.7746 20.7751 23.3683C21.0737 20.987 23.1253 19.1172 25.669 18.852ZM39.3768 22.5002C38.6367 22.5002 38.0369 23.0598 38.0369 23.7502C38.0369 24.4405 38.6367 25.0002 39.3768 25.0002C40.1168 25.0002 40.7167 24.4405 40.7167 23.7502C40.7167 23.0598 40.1168 22.5002 39.3768 22.5002ZM26.3128 30.0002C26.3128 26.721 29.1623 24.0627 32.6773 24.0627C36.1924 24.0627 39.0418 26.721 39.0418 30.0002C39.0418 33.2794 36.1924 35.9377 32.6773 35.9377C29.1623 35.9377 26.3128 33.2794 26.3128 30.0002Z" fill="black"/>
</g>
<defs>
<filter id="filter0_i_43_24" x="0" y="-3" width="64.3151" height="63" filterUnits="userSpaceOnUse" color-interpolation-filters="sRGB">
<feFlood flood-opacity="0" result="BackgroundImageFix"/>
<feBlend mode="normal" in="SourceGraphic" in2="BackgroundImageFix" result="shape"/>
<feColorMatrix in="SourceAlpha" type="matrix" values="0 0 0 0 0 0 0 0 0 0 0 0 0 0 0 0 0 0 127 0" result="hardAlpha"/>
<feOffset dy="-3"/>
<feGaussianBlur stdDeviation="2"/>
<feComposite in2="hardAlpha" operator="arithmetic" k2="-1" k3="1"/>
<feColorMatrix type="matrix" values="0 0 0 0 0 0 0 0 0 0 0 0 0 0 0 0 0 0 0.25 0"/>
<feBlend mode="normal" in2="shape" result="effect1_innerShadow_43_24"/>
</filter>
</defs>
</svg>
