<svg width="65" height="60" viewBox="0 0 65 60" fill="none" xmlns="http://www.w3.org/2000/svg">
<g filter="url(#filter0_i_43_23)">
<rect x="0.342468" width="64.3151" height="60" rx="20" fill="white"/>
<path fill-rule="evenodd" clip-rule="evenodd" d="M41.7064 39.7378L41.7074 39.7356L41.7307 39.6812L45.7488 20.7824V20.721C45.7488 20.2501 45.5623 19.8391 45.1564 19.5925C44.8012 19.3767 44.3929 19.3613 44.1066 19.3816C43.8037 19.403 43.5181 19.4735 43.3205 19.5322C43.2188 19.5624 43.1337 19.5915 43.0727 19.6135C43.0422 19.6246 43.0174 19.634 42.9994 19.6409L42.9818 19.6479L20.5789 27.8466L20.5728 27.8486C20.5607 27.8527 20.5447 27.8583 20.5253 27.8653C20.4868 27.8793 20.4344 27.8993 20.3727 27.9254C20.2518 27.9766 20.0846 28.0554 19.9151 28.1637C19.6273 28.3477 19.0791 28.7831 19.1717 29.4733C19.2483 30.0451 19.6708 30.4082 19.9556 30.5962C20.1083 30.6971 20.2544 30.7697 20.3613 30.8172C20.4155 30.8413 20.4616 30.8597 20.4958 30.8727C20.513 30.8792 20.5274 30.8844 20.5385 30.8884L20.5528 30.8933L20.5619 30.8966L24.4814 32.1276C24.4682 32.3569 24.4925 32.5908 24.5578 32.8217L26.5211 39.7697C26.7539 40.5934 27.5528 41.1673 28.466 41.1667C29.2846 41.1662 30.0106 40.7042 30.319 40.0149L33.3842 36.9573L38.6487 40.7226L38.7236 40.7531C39.2018 40.9478 39.6488 41.0094 40.0573 40.9574C40.4653 40.9054 40.7894 40.7458 41.033 40.5641C41.2727 40.3852 41.4369 40.1833 41.5402 40.0313C41.5927 39.9541 41.6318 39.8862 41.6589 39.8351C41.6725 39.8094 41.6833 39.7878 41.6913 39.7708L41.7015 39.7491L41.7051 39.7411L41.7064 39.7378ZM26.5011 32.3437C26.4565 32.1858 26.5266 32.0191 26.6744 31.9316L39.9689 24.0554C39.9689 24.0554 40.7508 23.6125 40.7228 24.0554C40.7228 24.0554 40.8624 24.1336 40.4433 24.4983C40.0459 24.8446 30.9681 33.0209 30.0495 33.8483C29.9965 33.8961 29.9648 33.9508 29.9461 34.0173L28.4645 39.2917L26.5011 32.3437Z" fill="black"/>
</g>
<defs>
<filter id="filter0_i_43_23" x="0.342468" y="-3" width="64.3151" height="63" filterUnits="userSpaceOnUse" color-interpolation-filters="sRGB">
<feFlood flood-opacity="0" result="BackgroundImageFix"/>
<feBlend mode="normal" in="SourceGraphic" in2="BackgroundImageFix" result="shape"/>
<feColorMatrix in="SourceAlpha" type="matrix" values="0 0 0 0 0 0 0 0 0 0 0 0 0 0 0 0 0 0 127 0" result="hardAlpha"/>
<feOffset dy="-3"/>
<feGaussianBlur stdDeviation="2"/>
<feComposite in2="hardAlpha" operator="arithmetic" k2="-1" k3="1"/>
<feColorMatrix type="matrix" values="0 0 0 0 0 0 0 0 0 0 0 0 0 0 0 0 0 0 0.25 0"/>
<feBlend mode="normal" in2="shape" result="effect1_innerShadow_43_23"/>
</filter>
</defs>
</svg>
